HIERARCHY
ROOT Hips
{
	OFFSET 0.000000 0.000000 0.000000
	CHANNELS 6 Xposition Yposition Zposition Zrotation Yrotation Xrotation 
	JOINT LHipJoint
	{
		OFFSET 0.000000 0.000000 0.000000
		CHANNELS 3 Zrotation Yrotation Xrotation
		JOINT LeftUpLeg
		{
			OFFSET 1.363060 -1.794630 0.839290
			CHANNELS 3 Zrotation Yrotation Xrotation
			JOINT LeftLeg
			{
				OFFSET 2.448110 -6.726130 0.000000
				CHANNELS 3 Zrotation Yrotation Xrotation
				JOINT LeftFoot
				{
					OFFSET 2.562200 -7.039590 0.000000
					CHANNELS 3 Zrotation Yrotation Xrotation
					JOINT LeftToeBase
					{
						OFFSET 0.157640 -0.433110 2.322550
						CHANNELS 3 Zrotation Yrotation Xrotation
						End Site
						{
							OFFSET 0.000000 0.000000 0.000000
						}
					}
				}
			}
		}
	}
	JOINT RHipJoint
	{
		OFFSET 0.000000 0.000000 0.000000
		CHANNELS 3 Zrotation Yrotation Xrotation
		JOINT RightUpLeg
		{
			OFFSET -1.305520 -1.794630 0.839290
			CHANNELS 3 Zrotation Yrotation Xrotation
			JOINT RightLeg
			{
				OFFSET -2.542530 -6.985550 0.000000
				CHANNELS 3 Zrotation Yrotation Xrotation
				JOINT RightFoot
				{
					OFFSET -2.568260 -7.056230 0.000000
					CHANNELS 3 Zrotation Yrotation Xrotation
					JOINT RightToeBase
					{
						OFFSET -0.164730 -0.452590 2.363150
						CHANNELS 3 Zrotation Yrotation Xrotation
						End Site
						{
							OFFSET 0.000000 0.000000 0.000000
						}
					}
				}
			}
		}
	}
	JOINT LowerBack
	{
		OFFSET 0.000000 0.000000 0.000000
		CHANNELS 3 Zrotation Yrotation Xrotation
		JOINT Spine
		{
			OFFSET 0.028270 2.035590 -0.193380
			CHANNELS 3 Zrotation Yrotation Xrotation
			JOINT Spine1
			{
				OFFSET 0.056720 2.048850 -0.042750
				CHANNELS 3 Zrotation Yrotation Xrotation
				JOINT Neck
				{
					OFFSET 0.000000 0.000000 0.000000
					CHANNELS 3 Zrotation Yrotation Xrotation
					JOINT Neck1
					{
						OFFSET -0.054170 1.746240 0.172020
						CHANNELS 3 Zrotation Yrotation Xrotation
						JOINT Head
						{
							OFFSET 0.104070 1.761360 -0.123970
							CHANNELS 3 Zrotation Yrotation Xrotation
							End Site
							{
								OFFSET 0.000000 0.000000 0.000000
							}
						}
					}
				}
				JOINT LeftShoulder
				{
					OFFSET 0.000000 0.000000 0.000000
					CHANNELS 3 Zrotation Yrotation Xrotation
					JOINT LeftArm
					{
						OFFSET 3.362410 1.200890 -0.311210
						CHANNELS 3 Zrotation Yrotation Xrotation
						JOINT LeftForeArm
						{
							OFFSET 4.983000 -0.000000 -0.000000
							CHANNELS 3 Zrotation Yrotation Xrotation
							JOINT LeftHand
							{
								OFFSET 3.483560 -0.000000 -0.000000
								CHANNELS 3 Zrotation Yrotation Xrotation
								JOINT LeftFingerBase
								{
									OFFSET 0.000000 0.000000 0.000000
									CHANNELS 3 Zrotation Yrotation Xrotation
									JOINT LeftHandIndex1
									{
										OFFSET 0.715260 -0.000000 -0.000000
										CHANNELS 3 Zrotation Yrotation Xrotation
										End Site
										{
											OFFSET 0.000000 0.000000 0.000000
										}
									}
								}
								JOINT LThumb
								{
									OFFSET 0.000000 0.000000 0.000000
									CHANNELS 3 Zrotation Yrotation Xrotation
									End Site
									{
										OFFSET 0.000000 0.000000 0.000000
									}
								}
							}
						}
					}
				}
				JOINT RightShoulder
				{
					OFFSET 0.000000 0.000000 0.000000
					CHANNELS 3 Zrotation Yrotation Xrotation
					JOINT RightArm
					{
						OFFSET -3.136600 1.374050 -0.404650
						CHANNELS 3 Zrotation Yrotation Xrotation
						JOINT RightForeArm
						{
							OFFSET -5.241900 -0.000000 -0.000000
							CHANNELS 3 Zrotation Yrotation Xrotation
							JOINT RightHand
							{
								OFFSET -3.444170 -0.000000 -0.000000
								CHANNELS 3 Zrotation Yrotation Xrotation
								JOINT RightFingerBase
								{
									OFFSET 0.000000 0.000000 0.000000
									CHANNELS 3 Zrotation Yrotation Xrotation
									JOINT RightHandIndex1
									{
										OFFSET -0.622530 -0.000000 -0.000000
										CHANNELS 3 Zrotation Yrotation Xrotation
										End Site
										{
											OFFSET 0.000000 0.000000 0.000000
										}
									}
								}
								JOINT RThumb
								{
									OFFSET 0.000000 0.000000 0.000000
									CHANNELS 3 Zrotation Yrotation Xrotation
									End Site
									{
										OFFSET 0.000000 0.000000 0.000000
									}
								}
							}
						}
					}
				}
			}
		}
	}
}
MOTION
Frames: 5
Frame Time: 0.008333
27.036974 17.384148 2.121541 90.158096 -86.069308 -59.126328 -8.419137 1.717634 2.990040 -15.398297 -2.893071 -56.426779 -0.673122 2.849405 52.682495 2.074783 10.279506 -4.281326 1.068500 0.000000 -35.324001 12.294175 -3.387851 2.254571 3.416895 -4.431950 -10.602633 1.292582 -0.106696 7.612837 0.182403 1.962758 17.225214 0.465800 -0.000000 -73.088800 -4.458975 -1.197344 -5.685316 -1.007219 -0.906239 -4.461287 -2.418200 -1.013694 -2.194163 1.416924 -0.596255 -5.561115 -0.246906 -0.049686 0.528242 0.000000 0.000000 0.000000 15.060902 1.640857 3.213327 -2.149264 -57.695470 -5.908829 -0.041163 -53.123168 -0.009942 1.367287 -2.509924 -0.036484 -0.031954 0.519097 -0.000000 0.000000 0.000000 0.000000 0.000000 0.000000 0.000000 -5.710904 5.457328 -0.620243 23.759650 55.888382 -13.766519 -1.688090 50.854175 -0.171631 -17.742138 9.709332 -1.644304 0.191390 -0.680638 -0.000000 0.000000 0.000000 0.000000 0.000000 0.000000 0.000000 
26.821955 17.434730 2.123552 91.926352 -86.199821 -60.721271 -8.310936 1.822969 3.066238 -15.825761 -2.731127 -56.295204 -0.969675 2.718266 49.995467 1.935474 9.431095 -4.244673 1.029100 0.000000 -36.083900 12.368879 -3.453194 2.242501 3.227372 -4.445901 -10.605741 1.153367 -0.213090 8.186274 0.080415 1.604773 18.885512 0.406401 0.000000 -72.245600 -4.768433 -1.185205 -5.751776 -1.019715 -0.864545 -4.466778 -2.193387 -0.977804 -2.139937 1.386031 -1.077661 -5.751420 -0.067076 -0.033214 0.477282 0.000000 0.000000 0.000000 15.383101 2.366107 3.139642 -0.484853 -58.503937 -8.979813 0.023233 -53.139340 0.002161 -0.159757 -1.373098 0.003292 0.008803 0.498503 -0.000000 0.000000 0.000000 0.000000 0.000000 0.000000 0.000000 -6.560252 5.073203 -0.759527 22.515269 56.134959 -14.166085 -1.689019 51.236282 -0.181305 -18.836638 9.551656 -1.722339 0.215667 -0.683432 -0.000000 0.000000 0.000000 0.000000 0.000000 0.000000 0.000000 
26.606703 17.475299 2.126114 93.305541 -86.348262 -61.920125 -8.202231 1.926767 3.161882 -16.182371 -2.619175 -56.123331 -1.285055 2.569513 47.229429 1.791356 8.544759 -4.321562 0.965101 0.000000 -36.730800 12.422543 -3.491902 2.241788 3.089490 -4.304420 -10.644558 0.988417 -0.303884 9.041647 -0.074462 0.687286 19.931226 0.059300 -0.000000 -71.232100 -5.050953 -1.186905 -5.839334 -1.028355 -0.839163 -4.474719 -1.980501 -0.958464 -2.078901 1.375939 -1.576677 -5.935752 0.102377 -0.017367 0.427038 0.000000 0.000000 0.000000 15.659431 3.054191 3.062838 1.272510 -59.221096 -12.243727 0.090779 -53.165927 0.012753 -1.436209 -0.282297 0.010280 0.044606 0.479311 -0.000000 0.000000 0.000000 0.000000 0.000000 0.000000 0.000000 -7.339108 4.658606 -0.877737 21.265262 56.388257 -14.485627 -1.679954 51.591734 -0.190131 -19.863872 9.425931 -1.796970 0.238857 -0.685393 -0.000000 0.000000 0.000000 0.000000 0.000000 0.000000 0.000000 
26.391215 17.504990 2.129528 94.267912 -86.518558 -62.695710 -8.096531 2.025097 3.284659 -16.453792 -2.570211 -55.919545 -1.611179 2.399609 44.410790 1.644816 7.640959 -4.461185 0.889900 0.000000 -37.332000 12.455482 -3.502732 2.247929 3.007076 -4.042784 -10.756785 0.803111 -0.384135 10.264090 -0.272952 -0.705289 20.321915 -0.543200 -0.000000 -69.765900 -5.298710 -1.201533 -5.953818 -1.032463 -0.829808 -4.486665 -1.782937 -0.955273 -2.012391 1.386524 -2.081981 -6.110469 0.257944 -0.002520 0.378746 0.000000 0.000000 0.000000 15.874160 3.694003 2.985295 3.173075 -59.840962 -15.702097 0.161071 -53.194464 0.021349 -2.411586 0.708130 -0.004824 0.073867 0.463123 0.000000 0.000000 0.000000 0.000000 0.000000 0.000000 0.000000 -8.030433 4.225529 -0.972008 19.967945 56.651883 -14.734682 -1.661682 51.910594 -0.198039 -20.827538 9.339521 -1.870799 0.260949 -0.686561 -0.000000 0.000000 0.000000 0.000000 0.000000 0.000000 0.000000 
26.175626 17.523348 2.133932 94.685363 -86.708917 -62.940291 -7.996136 2.114261 3.430896 -16.626770 -2.593845 -55.650793 -1.937383 2.205895 41.569743 1.500469 6.754759 -4.624087 0.813599 -0.000000 -37.802200 12.470366 -3.486036 2.250096 2.974380 -3.696021 -10.891946 0.602926 -0.455056 11.797300 -0.511558 -2.475041 20.156814 -1.332700 -0.000001 -68.173800 -5.507950 -1.229621 -6.078739 -1.031825 -0.837118 -4.499694 -1.602310 -0.968513 -1.943710 1.414511 -2.575369 -6.272751 0.397908 0.011110 0.333188 0.000000 0.000000 0.000000 16.006995 4.280468 2.912233 5.279365 -60.367274 -19.369505 0.232700 -53.196195 0.027602 -3.059848 1.511232 -0.028724 0.095725 0.452183 0.000000 0.000000 0.000000 0.000000 0.000000 0.000000 0.000000 -8.631491 3.792395 -1.043405 18.623118 56.918403 -14.940110 -1.636138 52.191526 -0.204784 -21.698169 9.300853 -1.944124 0.281203 -0.687179 -0.000000 0.000000 0.000000 0.000000 0.000000 0.000000 0.000000 
